Patient4_TMGait_0pt7_02_right_25_EMG.mot
version=1
nRows=23
nColumns=33
inDegrees=no
endheader
time	1LAddLong	2LGlutMax	3LGlutMed	4LIliopsoas	5LSemiMemb	6LBicFemLong	7LRecFem	8LVastMed	9LVastLat	10LGasMed	11LTibAnt	12lTibPost	13LPeroneusLong	14LSol	15LExtDigLong	16LFlexDigLong	17RAddLong	18RGlutMax	19RGlutMed	20RIliopsoas	21RSemiMemb	22RBicFemLong	23RRecFem	24RVastMed	25RVastLat	26RGasMed	27RTibAnt	28RTibPost	29RPeroneusLong	30RSol	31RExtDigLong	32RFlexDigLong
27.88	0.019379	-0.16235	-0.072021	0.00061	0.10086	0.074615	0.067444	0.009766	0.016327	-0.15747	0.041351	0.005188	-0.63126	0.077667	0.048065	-0.003357	0.010986	-0.027161	0.12405	-0.012054	-0.033569	-0.01358	0.005951	-0.10819	-0.01709	-0.007629	-0.44357	-0.005341	0.013885	0.15228	-0.003967	-0.031433
27.881	0.014191	-0.15808	-0.076447	0.019531	0.046387	0.1561	0.091248	0.011597	0.000916	-0.054169	0.042419	0.015106	-0.13412	0.14084	0.11307	-0.006256	-0.009613	-0.046539	-0.20798	0.029755	-0.010071	0.008087	-0.00351	-0.08606	-0.007019	-0.007782	-0.20584	0	-0.005188	0.10819	-0.000305	-0.033264
27.882	0.012054	-0.13534	0.031738	0.01709	0.041809	0.11139	0.098267	0.006866	0.005188	-0.063477	0.006409	0.001831	0.12985	0.20203	0.14114	0.007172	-0.052338	0.004883	-0.31097	0.026703	-0.027161	0.015869	0.058289	-0.053253	-0.019836	0.000916	0.009155	-0.001068	-0.03952	0.096283	-0.003204	-0.037231
27.883	0.005035	-0.13397	0.08316	-0.003967	0.02182	0.055237	0.11063	0.010529	0.004578	-0.050201	0.015869	0.00473	-0.1709	-0.002899	0.067444	0.012817	-0.053101	0.010223	-0.39108	0.028687	-0.010529	0.033417	0.074158	-0.030365	-0.021973	0.002747	-0.015869	0.001678	0.041962	0.060577	-0.000458	-0.041656
27.884	-0.010376	-0.06073	0.10559	-0.002136	0.005341	0.079803	0.093231	0.010834	-0.018921	-0.044556	-0.014954	0.006409	0.089722	-0.030823	0.036926	0.00824	-0.037842	-0.020447	-0.3006	0.044708	0.034332	0.046997	0.094604	-0.060577	-0.016327	0.002136	-0.081177	-0.000916	0.12589	-0.001831	0.001831	-0.041656
27.885	-0.017548	-0.075226	0.14923	-0.009155	-0.005035	0.094757	0.059967	0.017242	-0.018311	0.030975	-0.019989	0.004425	0.45059	-0.057983	0.045319	0.006256	-0.020294	-0.028839	-0.37399	-0.005341	0.047607	0.044708	0.053101	-0.057373	0.000916	0.003815	0.14557	-0.000763	0.11505	-0.01236	0.002747	-0.037231
27.886	-0.015411	-0.092316	0.027161	-0.010376	0.011749	0.081635	0.070801	0.022125	0.001526	0.15274	-0.025482	0.007935	0.028229	-0.067444	-0.021667	0.006409	-0.024567	-0.03891	0.13825	-0.073242	0.034332	0.049438	-0.009003	-0.062714	0.002747	0.005646	0.079346	0.002747	0.010529	0.01297	0.000305	-0.032501
27.887	-0.016022	-0.061188	-0.016327	0.017395	0.041199	0.087585	0.093231	0.034485	0.008087	0.23773	-0.016327	0.019073	-0.043945	-0.057373	-0.12558	-0.000916	-0.032196	-0.065155	0.19669	-0.10666	0.023804	0.039368	0.007935	-0.040741	-0.001984	-0.002747	0.054321	0.000916	-0.17319	0.014191	0.000153	-0.031128
27.888	0.010223	-0.023346	-0.044708	-0.001831	0.033264	0.036774	0.079498	0.021057	-0.001831	0.25513	-0.023956	0.005188	0.059204	0.023956	-0.07782	-0.001831	-0.034485	-0.059509	0.38727	-0.11047	0.021362	0.027618	0.025787	-0.063171	-0.00473	0.001678	0.037231	0.00412	-0.18341	-0.039368	-0.00412	-0.02533
27.889	0.030212	0.027313	0.040436	-0.002136	0.008545	-0.004425	0.079346	0.012207	0.0354	0.27145	-0.004272	0.003357	0.042419	-0.14435	-0.045166	-0.001678	-0.050964	-0.012817	0.19104	-0.10559	0.014191	0.029907	0.030975	-0.072021	-0.010223	-0.018616	0.028229	0.00061	-0.13748	-0.050507	-0.001526	-0.02655
27.89	0.028687	0.041656	-0.10971	0.019989	0.002136	-0.008087	0.058136	0.001984	0.068665	0.18005	-0.016327	0.006256	0.025024	-0.23682	0.019989	-0.010681	-0.062256	-0.031281	0.38071	-0.11932	0.007935	0.01709	0.026398	-0.096283	0.014038	-0.010681	0.096283	0.002136	-0.12238	-0.055237	-0.002899	-0.028076
27.891	0.039215	0.020142	0.052338	-0.012054	0.030212	0.012207	-0.012665	0.007477	0.11414	0.063934	-0.044098	0.001221	0.33463	-0.25986	0.016327	-0.005188	-0.044861	0.019989	0.57297	-0.092316	-0.001984	0.004578	0.043182	-0.049286	0.016632	-0.007782	0.14175	-0.000305	0.042572	-0.037384	-0.002136	-0.011902
27.892	0.032959	0.031891	0.1561	-0.016632	0.033875	0.006866	-0.042572	0.008392	0.18265	-0.011749	-0.015564	0.010529	0.43961	-0.14771	-0.00824	-0.01358	-0.012512	-0.013733	0.68054	-0.014038	-0.027466	0.003357	0.103	-0.064545	0.020294	-0.007477	0.10208	0.005798	0.49408	-0.021362	-0.001526	-0.015106
27.893	0.084991	0.033264	-0.001068	0.025024	0.003967	-0.033569	-0.082245	-0.011749	0.23209	-0.029297	0.014648	0.014038	0.699	0.035095	-0.035248	-0.015869	0.028839	-0.009003	0.22034	0.089722	-0.042114	-0.01297	0.14481	-0.050049	0.007629	-0.010376	0.075836	0	0.34439	0.028992	-0.001068	-0.011902
27.894	-0.018311	0.054932	0.087585	0.023956	-0.010376	-0.005493	-0.03952	0.002136	0.18494	-0.064392	0.030365	0.004425	0.50858	0.072174	-0.1152	-0.003357	0.048523	-0.027008	-0.099792	0.14252	-0.026093	-0.013428	0.14832	-0.04776	0.023956	-0.010681	0.01358	0.001373	-0.31433	-0.000763	-0.002136	-0.020447
27.895	-0.006409	0.066833	0.11414	0.014496	-0.015106	0.005798	0.049286	-0.007935	0.00824	-0.10361	-0.028076	0.009155	0.35324	0.052032	-0.17059	-0.003967	0.036469	-0.031738	-0.17624	0.15457	0.021057	-0.052338	0.15305	-0.045776	0.029602	-0.011597	-0.022583	0	-0.12955	-0.016785	0.005188	-0.012817
27.896	-0.001526	0.10696	0.045624	0.013733	-0.038605	0.027618	0.078735	0.009155	-0.14008	-0.10925	-0.053558	0.009766	-0.34058	0.053711	-0.15396	-0.013428	0.051727	0.048218	-0.17029	0.12253	0.085144	-0.060425	0.14755	-0.06958	0.025635	-0.011139	0.1297	0.001373	-0.071564	-0.038605	-0.003052	-0.016937
27.897	0.001831	0.11231	-0.002441	0.006714	-0.064545	0.009155	0.14771	-0.001373	-0.13077	-0.077972	-0.010529	-0.003204	-1.0347	0.028076	-0.046692	-0.044861	0.048523	0.02533	-0.16541	0.061493	0.06424	-0.073395	0.083313	-0.096283	0.022736	-0.007629	0.30029	0.00061	0.11032	-0.054626	-0.001373	-0.023956
27.898	0.003204	0.11719	-0.041351	-0.002289	-0.063782	-0.077362	0.12116	-0.001984	0.046997	0.016632	0.066376	0.004272	-0.66254	0.10162	0.09079	-0.016632	0.067596	-0.010529	-0.23697	0.019379	-0.06134	0.006866	0.075531	-0.072021	0.016937	0.000916	0.46722	-0.002441	0.021667	-0.1329	-0.002747	-0.022736
27.899	-0.003815	0.14542	0.003815	0.028839	-0.057678	-0.12177	0.046082	-0.00061	0.12116	0.094452	0.04303	0.014648	-0.1413	0.049744	0.013733	0.021057	0.097656	-0.036011	-0.20767	-0.06134	-0.032806	0.031738	0.1004	-0.084076	0.013123	0.00061	0.46295	0.002747	-0.37903	-0.17563	-0.003662	-0.014496
27.9	0.002289	0.15305	-0.03952	0.001984	0.029602	-0.093079	-0.031433	0.003204	0.25421	0.024414	0.009613	0.00473	0.33844	-0.044861	0.063019	-0.10315	0.14221	0.006561	0.18814	-0.050049	-0.052185	0.049286	0.11444	-0.091095	-0.011292	-0.006409	0.23193	0.000458	-0.31281	-0.1088	-0.003357	-0.016785
27.901	0.020905	0.18204	-0.06424	0.006256	0.040436	-0.016785	-0.00824	0	0.23254	-0.10147	-0.010071	-0.003052	0.02243	-0.20264	0.03952	0.12894	0.17914	-0.056305	0.29953	-0.068207	-0.055237	0.031128	0.093079	-0.12695	0.017395	-0.007935	-0.093079	-0.003357	0.42969	-0.010834	-0.003357	-0.010834
27.902	-0.000763	0.1738	-0.04715	0.006256	0.025177	0.039368	-0.005798	0.006714	0.22827	-0.18097	-0.009918	0.001831	0.003815	-0.18341	0.18433	0.19379	0.18555	-0.13428	0.24292	-0.10498	-0.054779	0.017395	0.051727	-0.10101	0.015106	-0.007477	-0.32196	-0.001678	0.80994	0.034332	-0.003204	-0.009155
